<svg id="visual" viewBox="0 0 960 540" width="960" height="540" xmlns="http://www.w3.org/2000/svg" xmlns:xlink="http://www.w3.org/1999/xlink" version="1.1"><rect x="0" y="0" width="960" height="540" fill="#e2e5de"></rect><defs><linearGradient id="grad1_0" x1="43.8%" y1="0%" x2="100%" y2="100%"><stop offset="14.444444444444446%" stop-color="#a3c8ac" stop-opacity="1"></stop><stop offset="85.55555555555554%" stop-color="#a3c8ac" stop-opacity="1"></stop></linearGradient></defs><defs><linearGradient id="grad1_1" x1="43.8%" y1="0%" x2="100%" y2="100%"><stop offset="14.444444444444446%" stop-color="#a3c8ac" stop-opacity="1"></stop><stop offset="85.55555555555554%" stop-color="#bbd1ba" stop-opacity="1"></stop></linearGradient></defs><defs><linearGradient id="grad1_2" x1="43.8%" y1="0%" x2="100%" y2="100%"><stop offset="14.444444444444446%" stop-color="#d0dbcb" stop-opacity="1"></stop><stop offset="85.55555555555554%" stop-color="#bbd1ba" stop-opacity="1"></stop></linearGradient></defs><defs><linearGradient id="grad1_3" x1="43.8%" y1="0%" x2="100%" y2="100%"><stop offset="14.444444444444446%" stop-color="#d0dbcb" stop-opacity="1"></stop><stop offset="85.55555555555554%" stop-color="#e2e5de" stop-opacity="1"></stop></linearGradient></defs><defs><linearGradient id="grad2_0" x1="0%" y1="0%" x2="56.3%" y2="100%"><stop offset="14.444444444444446%" stop-color="#a3c8ac" stop-opacity="1"></stop><stop offset="85.55555555555554%" stop-color="#a3c8ac" stop-opacity="1"></stop></linearGradient></defs><defs><linearGradient id="grad2_1" x1="0%" y1="0%" x2="56.3%" y2="100%"><stop offset="14.444444444444446%" stop-color="#bbd1ba" stop-opacity="1"></stop><stop offset="85.55555555555554%" stop-color="#a3c8ac" stop-opacity="1"></stop></linearGradient></defs><defs><linearGradient id="grad2_2" x1="0%" y1="0%" x2="56.3%" y2="100%"><stop offset="14.444444444444446%" stop-color="#bbd1ba" stop-opacity="1"></stop><stop offset="85.55555555555554%" stop-color="#d0dbcb" stop-opacity="1"></stop></linearGradient></defs><defs><linearGradient id="grad2_3" x1="0%" y1="0%" x2="56.3%" y2="100%"><stop offset="14.444444444444446%" stop-color="#e2e5de" stop-opacity="1"></stop><stop offset="85.55555555555554%" stop-color="#d0dbcb" stop-opacity="1"></stop></linearGradient></defs><g transform="translate(960, 0)"><path d="M0 540C-39.1 508.4 -78.2 476.7 -126 470.4C-173.9 464.1 -230.4 483.1 -270 467.7C-309.6 452.2 -332.3 402.3 -364.9 364.9C-397.5 327.4 -440 302.4 -457.3 264C-474.6 225.6 -466.6 173.8 -476.2 127.6C-485.8 81.4 -512.9 40.7 -540 0L0 0Z" fill="#d9e0d4"></path><path d="M0 405C-29.3 381.3 -58.7 357.5 -94.5 352.8C-130.4 348.1 -172.8 362.3 -202.5 350.7C-232.2 339.2 -249.2 301.7 -273.7 273.7C-298.1 245.6 -330 226.8 -342.9 198C-355.9 169.2 -350 130.4 -357.2 95.7C-364.3 61 -384.7 30.5 -405 0L0 0Z" fill="#c6d6c2"></path><path d="M0 270C-19.6 254.2 -39.1 238.4 -63 235.2C-86.9 232 -115.2 241.5 -135 233.8C-154.8 226.1 -166.1 201.2 -182.4 182.4C-198.7 163.7 -220 151.2 -228.6 132C-237.3 112.8 -233.3 86.9 -238.1 63.8C-242.9 40.7 -256.4 20.3 -270 0L0 0Z" fill="#afcdb3"></path><path d="M0 135C-9.8 127.1 -19.6 119.2 -31.5 117.6C-43.5 116 -57.6 120.8 -67.5 116.9C-77.4 113.1 -83.1 100.6 -91.2 91.2C-99.4 81.9 -110 75.6 -114.3 66C-118.6 56.4 -116.7 43.5 -119.1 31.9C-121.4 20.3 -128.2 10.2 -135 0L0 0Z" fill="#a3c8ac"></path></g><g transform="translate(0, 540)"><path d="M0 -540C40.1 -509.5 80.1 -479 126.3 -471.4C172.5 -463.8 224.8 -479.1 270 -467.7C315.2 -456.2 353.4 -418 375.5 -375.5C397.6 -332.9 403.6 -286 428.7 -247.5C453.8 -209 497.9 -179.1 519.7 -139.2C541.4 -99.4 540.7 -49.7 540 0L0 0Z" fill="#d9e0d4"></path><path d="M0 -405C30 -382.1 60.1 -359.2 94.7 -353.5C129.4 -347.8 168.6 -359.3 202.5 -350.7C236.4 -342.2 265 -313.5 281.6 -281.6C298.2 -249.7 302.7 -214.5 321.5 -185.6C340.3 -156.8 373.5 -134.3 389.8 -104.4C406 -74.6 405.5 -37.3 405 0L0 0Z" fill="#c6d6c2"></path><path d="M0 -270C20 -254.7 40.1 -239.5 63.2 -235.7C86.2 -231.9 112.4 -239.5 135 -233.8C157.6 -228.1 176.7 -209 187.7 -187.7C198.8 -166.5 201.8 -143 214.3 -123.8C226.9 -104.5 249 -89.5 259.8 -69.6C270.7 -49.7 270.3 -24.9 270 0L0 0Z" fill="#afcdb3"></path><path d="M0 -135C10 -127.4 20 -119.7 31.6 -117.8C43.1 -115.9 56.2 -119.8 67.5 -116.9C78.8 -114.1 88.3 -104.5 93.9 -93.9C99.4 -83.2 100.9 -71.5 107.2 -61.9C113.4 -52.3 124.5 -44.8 129.9 -34.8C135.3 -24.9 135.2 -12.4 135 0L0 0Z" fill="#a3c8ac"></path></g></svg>